<?xml version="1.0" encoding="utf-8"?>
<!-- Generator: Adobe Illustrator 27.3.1, SVG Export Plug-In . SVG Version: 6.00 Build 0)  -->
<svg version="1.1" id="Layer_1" xmlns="http://www.w3.org/2000/svg" xmlns:xlink="http://www.w3.org/1999/xlink" x="0px" y="0px"
	 viewBox="0 0 1920 1080" style="enable-background:new 0 0 1920 1080;" xml:space="preserve">
<style type="text/css">
	.st0{fill:#7EEDC7;}
	.st1{fill:#FFFFFF;}
</style>
<g id="Layer_3">
</g>
<g id="Layer_2_00000144318819940826548170000009267267042187000508_">
</g>
<g id="Layer_1_00000023273801442994218530000009997747731987880081_">
	<g>
		<path class="st0" d="M177.8,261.9c-39.7,0-71.9,32.2-71.9,71.9v342.8l0,0v0l141.6,141.5l358.8,0c30.9,0,55.9-25,55.9-55.9
			c0-113.2,0-358.8,0-358.8H662L520.6,261.9H177.8z M613.4,403.4H271.8L164.7,296.3h341.7C507.2,297.1,613.4,403.4,613.4,403.4z
			 M281.9,659.3c0-1.4,0-220,0-221.5h345.8V756c0,15.3-12.4,27.7-27.7,27.7H281.9V676.6V659.3z M140.3,662.3V320.7l107.1,107.1
			v341.6L140.3,662.3z"/>
		<path class="st0" d="M436.2,614.1l-10.5,61.7h29.1h29.1l-10.5-61.7c11.1-6.5,18.4-18.7,18.1-32.6c-0.5-19.9-17.2-36-37.1-35.8
			c-20.1,0.2-36.3,16.6-36.3,36.7C418.1,596,425.3,607.7,436.2,614.1z"/>
	</g>
</g>
<g>
	<g>
		<path class="st1" d="M489.8-133.1v-129h30v104.7h64.3v24.3H489.8z"/>
		<path class="st1" d="M673.5-131.6c-10.4,0-19.8-2.2-27.9-6.6c-8.2-4.4-14.6-10.5-19.3-18.2c-4.7-7.7-7-16.4-7-26.3
			c0-10,2.3-18.8,7-26.4c4.7-7.7,11.1-13.7,19.3-18.1c8.2-4.4,17.5-6.5,27.9-6.5c10.6,0,20,2.2,28.2,6.5
			c8.2,4.4,14.7,10.4,19.4,18.1c4.7,7.7,7,16.5,7,26.4c0,10-2.3,18.7-7,26.4c-4.7,7.6-11.1,13.6-19.4,18.1
			C693.5-133.8,684.1-131.6,673.5-131.6z M673.5-155.2c4.9,0,9.2-1.1,13-3.2c3.7-2.1,6.8-5.3,9-9.5c2.3-4.2,3.4-9.1,3.4-14.7
			c0-5.8-1.1-10.7-3.4-14.7c-2.3-4.1-5.3-7.2-9-9.3c-3.7-2.1-8-3.2-12.8-3.2s-9.1,1.1-12.9,3.2c-3.8,2.2-6.9,5.3-9.1,9.3
			c-2.3,4.1-3.4,9-3.4,14.7c0,5.7,1.1,10.6,3.4,14.7c2.3,4.2,5.3,7.3,9.1,9.5C664.6-156.3,668.9-155.2,673.5-155.2z"/>
		<path class="st1" d="M822.6-131.6c-10.7,0-20.2-2.2-28.5-6.5c-8.3-4.4-14.8-10.4-19.5-18.2c-4.7-7.7-7.1-16.5-7.1-26.4
			c0-10,2.4-18.7,7.1-26.4c4.7-7.6,11.2-13.6,19.5-18.1s17.8-6.6,28.5-6.6c10.4,0,19.6,2.2,27.4,6.5c7.8,4.4,13.4,10.5,16.9,18.5
			l-22.1,12.2c-2.7-4.7-6-8.1-9.8-10.2c-3.8-2.1-8-3.2-12.5-3.2c-4.8,0-9.2,1.1-13.1,3.2c-3.9,2.2-7.1,5.3-9.4,9.3
			c-2.3,4.1-3.5,9-3.5,14.7c0,5.8,1.2,10.7,3.5,14.8c2.3,4.1,5.5,7.3,9.4,9.4c3.9,2.2,8.3,3.2,13.1,3.2c4.5,0,8.7-1.1,12.5-3.2
			c3.8-2.1,7.1-5.6,9.8-10.4l22.1,12.2c-3.4,7.9-9.1,14-16.9,18.4C842.2-133.8,833.1-131.6,822.6-131.6z"/>
		<path class="st1" d="M911.1-133.1v-136.7h28.7v136.7H911.1z M934.8-153.4l0.7-35.2l46.3-43.7h34.3l-44.4,45.1l-14.9,12.3
			L934.8-153.4z M985-133.1l-33.5-41.6l18.1-22.3l50.3,63.9H985z"/>
		<path class="st0" d="M1062.2-133.1v-129h63c16.2,0,28.4,3.1,36.6,9.2c8.2,6.1,12.3,14.3,12.3,24.3c0,6.8-1.7,12.6-5,17.6
			s-7.9,8.8-13.7,11.5c-5.8,2.7-12.4,4.1-19.8,4.1l3.5-7.7c8.1,0,15.3,1.4,21.5,4.1c6.2,2.7,11.1,6.6,14.7,11.8
			c3.6,5.2,5.3,11.5,5.3,19c0,11.1-4.4,19.7-13.1,25.9c-8.7,6.2-21.6,9.3-38.5,9.3H1062.2z M1091.9-155.6h35
			c7.6,0,13.5-1.3,17.5-3.9c4.1-2.6,6.1-6.6,6.1-12c0-5.5-2-9.6-6.1-12.2c-4.1-2.6-9.9-3.9-17.5-3.9h-37.2v-21.7h31.9
			c7.2,0,12.8-1.3,16.7-3.8c3.9-2.5,5.8-6.4,5.8-11.5s-1.9-9-5.8-11.4c-3.9-2.5-9.4-3.7-16.7-3.7h-29.7V-155.6z"/>
		<path class="st0" d="M1275.6-131.6c-10.4,0-19.8-2.2-27.9-6.6c-8.2-4.4-14.6-10.5-19.3-18.2c-4.7-7.7-7-16.4-7-26.3
			c0-10,2.3-18.8,7-26.4c4.7-7.7,11.1-13.7,19.3-18.1c8.2-4.4,17.5-6.5,27.9-6.5c10.6,0,20,2.2,28.2,6.5
			c8.2,4.4,14.7,10.4,19.3,18.1c4.7,7.7,7,16.5,7,26.4c0,10-2.3,18.7-7,26.4c-4.7,7.6-11.1,13.6-19.3,18.1
			C1295.5-133.8,1286.2-131.6,1275.6-131.6z M1275.6-155.2c4.9,0,9.2-1.1,13-3.2c3.7-2.1,6.8-5.3,9-9.5c2.3-4.2,3.4-9.1,3.4-14.7
			c0-5.8-1.1-10.7-3.4-14.7c-2.3-4.1-5.3-7.2-9-9.3c-3.7-2.1-8-3.2-12.8-3.2s-9.1,1.1-12.9,3.2c-3.8,2.2-6.9,5.3-9.1,9.3
			c-2.3,4.1-3.4,9-3.4,14.7c0,5.7,1.1,10.6,3.4,14.7c2.3,4.2,5.3,7.3,9.1,9.5C1266.7-156.3,1270.9-155.2,1275.6-155.2z"/>
		<path class="st0" d="M1364-133.1l44.6-58l-0.6,15.8l-42.4-56.9h32.1l26.9,37l-12.2,0.4l27.6-37.4h30.8L1428-176l0.2-15.5
			l44.2,58.4h-32.6l-28.2-39.4l12,1.7l-27.8,37.8H1364z"/>
	</g>
</g>
</svg>
